<mxfile host="Electron" agent="Mozilla/5.0 (Macintosh; Intel Mac OS X 10_15_7) AppleWebKit/537.36 (KHTML, like Gecko) draw.io/26.0.7 Chrome/128.0.6613.186 Electron/32.2.5 Safari/537.36" version="26.0.7">
  <diagram name="Page-1" id="XEPwlt-S_07XdpgivKQ5">
    <mxGraphModel dx="1314" dy="478" grid="1" gridSize="10" guides="1" tooltips="1" connect="1" arrows="1" fold="1" page="0" pageScale="1" pageWidth="827" pageHeight="1169" math="0" shadow="0">
      <root>
        <mxCell id="0" />
        <mxCell id="1" parent="0" />
        <mxCell id="1T61cYQyN9dJzYw8Mmq7-13" value="1" style="rounded=0;whiteSpace=wrap;html=1;fontSize=30;verticalAlign=top;labelPosition=center;verticalLabelPosition=middle;align=center;fillColor=#dae8fc;strokeColor=#6c8ebf;" vertex="1" parent="1">
          <mxGeometry x="200" y="720" width="120" height="120" as="geometry" />
        </mxCell>
        <mxCell id="XTAMxBPmkB1g6wwatc1e-2" value="a" style="rounded=0;whiteSpace=wrap;html=1;fontSize=40;verticalAlign=middle;align=center;fillColor=#f8cecc;strokeColor=#b85450;" parent="1" vertex="1">
          <mxGeometry x="180" y="760" width="40" height="40" as="geometry" />
        </mxCell>
        <mxCell id="1T61cYQyN9dJzYw8Mmq7-14" value="b" style="rounded=0;whiteSpace=wrap;html=1;fontSize=40;verticalAlign=middle;align=center;fillColor=#f8cecc;strokeColor=#b85450;" vertex="1" parent="1">
          <mxGeometry x="300" y="760" width="40" height="40" as="geometry" />
        </mxCell>
        <mxCell id="1T61cYQyN9dJzYw8Mmq7-15" value="2" style="rounded=0;whiteSpace=wrap;html=1;fontSize=30;fillColor=#dae8fc;strokeColor=#6c8ebf;" vertex="1" parent="1">
          <mxGeometry x="400" y="720" width="120" height="120" as="geometry" />
        </mxCell>
        <mxCell id="1T61cYQyN9dJzYw8Mmq7-16" value="a" style="rounded=0;whiteSpace=wrap;html=1;fontSize=40;verticalAlign=middle;align=center;fillColor=#f8cecc;strokeColor=#b85450;" vertex="1" parent="1">
          <mxGeometry x="380" y="760" width="40" height="40" as="geometry" />
        </mxCell>
        <mxCell id="1T61cYQyN9dJzYw8Mmq7-17" value="b" style="rounded=0;whiteSpace=wrap;html=1;fontSize=40;verticalAlign=middle;align=center;fillColor=#f8cecc;strokeColor=#b85450;" vertex="1" parent="1">
          <mxGeometry x="500" y="790" width="40" height="40" as="geometry" />
        </mxCell>
        <mxCell id="1T61cYQyN9dJzYw8Mmq7-32" value="" style="endArrow=classic;startArrow=classic;html=1;rounded=0;" edge="1" parent="1" source="XTAMxBPmkB1g6wwatc1e-2" target="1T61cYQyN9dJzYw8Mmq7-14">
          <mxGeometry width="50" height="50" relative="1" as="geometry">
            <mxPoint x="310" y="920" as="sourcePoint" />
            <mxPoint x="360" y="870" as="targetPoint" />
          </mxGeometry>
        </mxCell>
        <mxCell id="1T61cYQyN9dJzYw8Mmq7-33" value="c" style="rounded=0;whiteSpace=wrap;html=1;fontSize=40;verticalAlign=middle;align=center;fillColor=#f8cecc;strokeColor=#b85450;" vertex="1" parent="1">
          <mxGeometry x="500" y="730" width="40" height="40" as="geometry" />
        </mxCell>
        <mxCell id="1T61cYQyN9dJzYw8Mmq7-34" value="3" style="rounded=0;whiteSpace=wrap;html=1;fontSize=30;verticalAlign=top;labelPosition=center;verticalLabelPosition=middle;align=center;fillColor=#dae8fc;strokeColor=#6c8ebf;" vertex="1" parent="1">
          <mxGeometry x="600" y="800" width="120" height="120" as="geometry" />
        </mxCell>
        <mxCell id="1T61cYQyN9dJzYw8Mmq7-35" value="a" style="rounded=0;whiteSpace=wrap;html=1;fontSize=40;verticalAlign=middle;align=center;fillColor=#f8cecc;strokeColor=#b85450;" vertex="1" parent="1">
          <mxGeometry x="580" y="840" width="40" height="40" as="geometry" />
        </mxCell>
        <mxCell id="1T61cYQyN9dJzYw8Mmq7-36" value="b" style="rounded=0;whiteSpace=wrap;html=1;fontSize=40;verticalAlign=middle;align=center;fillColor=#f8cecc;strokeColor=#b85450;" vertex="1" parent="1">
          <mxGeometry x="700" y="840" width="40" height="40" as="geometry" />
        </mxCell>
        <mxCell id="1T61cYQyN9dJzYw8Mmq7-37" value="" style="endArrow=classic;startArrow=classic;html=1;rounded=0;" edge="1" parent="1" source="1T61cYQyN9dJzYw8Mmq7-35">
          <mxGeometry width="50" height="50" relative="1" as="geometry">
            <mxPoint x="710" y="1000" as="sourcePoint" />
            <mxPoint x="700" y="860" as="targetPoint" />
          </mxGeometry>
        </mxCell>
        <mxCell id="1T61cYQyN9dJzYw8Mmq7-38" value="4" style="rounded=0;whiteSpace=wrap;html=1;fontSize=30;verticalAlign=top;labelPosition=center;verticalLabelPosition=middle;align=center;fillColor=#dae8fc;strokeColor=#6c8ebf;" vertex="1" parent="1">
          <mxGeometry x="600" y="640" width="120" height="120" as="geometry" />
        </mxCell>
        <mxCell id="1T61cYQyN9dJzYw8Mmq7-39" value="a" style="rounded=0;whiteSpace=wrap;html=1;fontSize=40;verticalAlign=middle;align=center;fillColor=#f8cecc;strokeColor=#b85450;" vertex="1" parent="1">
          <mxGeometry x="580" y="680" width="40" height="40" as="geometry" />
        </mxCell>
        <mxCell id="1T61cYQyN9dJzYw8Mmq7-40" value="b" style="rounded=0;whiteSpace=wrap;html=1;fontSize=40;verticalAlign=middle;align=center;fillColor=#f8cecc;strokeColor=#b85450;" vertex="1" parent="1">
          <mxGeometry x="700" y="680" width="40" height="40" as="geometry" />
        </mxCell>
        <mxCell id="1T61cYQyN9dJzYw8Mmq7-41" value="" style="endArrow=classic;startArrow=classic;html=1;rounded=0;" edge="1" parent="1" source="1T61cYQyN9dJzYw8Mmq7-39" target="1T61cYQyN9dJzYw8Mmq7-40">
          <mxGeometry width="50" height="50" relative="1" as="geometry">
            <mxPoint x="710" y="840" as="sourcePoint" />
            <mxPoint x="760" y="790" as="targetPoint" />
          </mxGeometry>
        </mxCell>
        <mxCell id="1T61cYQyN9dJzYw8Mmq7-42" value="6" style="rounded=0;whiteSpace=wrap;html=1;fontSize=30;verticalAlign=top;labelPosition=center;verticalLabelPosition=middle;align=center;fillColor=#dae8fc;strokeColor=#6c8ebf;" vertex="1" parent="1">
          <mxGeometry x="1000" y="720" width="120" height="120" as="geometry" />
        </mxCell>
        <mxCell id="1T61cYQyN9dJzYw8Mmq7-43" value="a" style="rounded=0;whiteSpace=wrap;html=1;fontSize=40;verticalAlign=middle;align=center;fillColor=#f8cecc;strokeColor=#b85450;" vertex="1" parent="1">
          <mxGeometry x="980" y="760" width="40" height="40" as="geometry" />
        </mxCell>
        <mxCell id="1T61cYQyN9dJzYw8Mmq7-44" value="b" style="rounded=0;whiteSpace=wrap;html=1;fontSize=40;verticalAlign=middle;align=center;fillColor=#f8cecc;strokeColor=#b85450;" vertex="1" parent="1">
          <mxGeometry x="1100" y="760" width="40" height="40" as="geometry" />
        </mxCell>
        <mxCell id="1T61cYQyN9dJzYw8Mmq7-45" value="" style="endArrow=classic;startArrow=classic;html=1;rounded=0;" edge="1" parent="1" source="1T61cYQyN9dJzYw8Mmq7-43" target="1T61cYQyN9dJzYw8Mmq7-44">
          <mxGeometry width="50" height="50" relative="1" as="geometry">
            <mxPoint x="1110" y="920" as="sourcePoint" />
            <mxPoint x="1160" y="870" as="targetPoint" />
          </mxGeometry>
        </mxCell>
        <mxCell id="1T61cYQyN9dJzYw8Mmq7-46" value="5" style="rounded=0;whiteSpace=wrap;html=1;fontSize=30;fillColor=#dae8fc;strokeColor=#6c8ebf;" vertex="1" parent="1">
          <mxGeometry x="800" y="720" width="120" height="120" as="geometry" />
        </mxCell>
        <mxCell id="1T61cYQyN9dJzYw8Mmq7-47" value="a" style="rounded=0;whiteSpace=wrap;html=1;fontSize=40;verticalAlign=middle;align=center;fillColor=#f8cecc;strokeColor=#b85450;" vertex="1" parent="1">
          <mxGeometry x="900" y="760" width="40" height="40" as="geometry" />
        </mxCell>
        <mxCell id="1T61cYQyN9dJzYw8Mmq7-48" value="b" style="rounded=0;whiteSpace=wrap;html=1;fontSize=40;verticalAlign=middle;align=center;fillColor=#f8cecc;strokeColor=#b85450;" vertex="1" parent="1">
          <mxGeometry x="780" y="790" width="40" height="40" as="geometry" />
        </mxCell>
        <mxCell id="1T61cYQyN9dJzYw8Mmq7-49" value="c" style="rounded=0;whiteSpace=wrap;html=1;fontSize=40;verticalAlign=middle;align=center;fillColor=#f8cecc;strokeColor=#b85450;" vertex="1" parent="1">
          <mxGeometry x="780" y="730" width="40" height="40" as="geometry" />
        </mxCell>
        <mxCell id="1T61cYQyN9dJzYw8Mmq7-55" value="" style="endArrow=classic;startArrow=classic;html=1;rounded=0;" edge="1" parent="1" source="1T61cYQyN9dJzYw8Mmq7-47" target="1T61cYQyN9dJzYw8Mmq7-43">
          <mxGeometry width="50" height="50" relative="1" as="geometry">
            <mxPoint x="230" y="630" as="sourcePoint" />
            <mxPoint x="280" y="580" as="targetPoint" />
          </mxGeometry>
        </mxCell>
        <mxCell id="1T61cYQyN9dJzYw8Mmq7-56" value="" style="endArrow=classic;startArrow=classic;html=1;rounded=0;" edge="1" parent="1" source="1T61cYQyN9dJzYw8Mmq7-49" target="1T61cYQyN9dJzYw8Mmq7-47">
          <mxGeometry width="50" height="50" relative="1" as="geometry">
            <mxPoint x="240" y="640" as="sourcePoint" />
            <mxPoint x="290" y="590" as="targetPoint" />
          </mxGeometry>
        </mxCell>
        <mxCell id="1T61cYQyN9dJzYw8Mmq7-57" value="" style="endArrow=classic;startArrow=classic;html=1;rounded=0;" edge="1" parent="1" source="1T61cYQyN9dJzYw8Mmq7-36" target="1T61cYQyN9dJzYw8Mmq7-48">
          <mxGeometry width="50" height="50" relative="1" as="geometry">
            <mxPoint x="250" y="650" as="sourcePoint" />
            <mxPoint x="300" y="600" as="targetPoint" />
          </mxGeometry>
        </mxCell>
        <mxCell id="1T61cYQyN9dJzYw8Mmq7-58" value="" style="endArrow=classic;startArrow=classic;html=1;rounded=0;" edge="1" parent="1" source="1T61cYQyN9dJzYw8Mmq7-40" target="1T61cYQyN9dJzYw8Mmq7-49">
          <mxGeometry width="50" height="50" relative="1" as="geometry">
            <mxPoint x="260" y="660" as="sourcePoint" />
            <mxPoint x="310" y="610" as="targetPoint" />
          </mxGeometry>
        </mxCell>
        <mxCell id="1T61cYQyN9dJzYw8Mmq7-59" value="" style="endArrow=classic;startArrow=classic;html=1;rounded=0;" edge="1" parent="1" source="1T61cYQyN9dJzYw8Mmq7-35" target="1T61cYQyN9dJzYw8Mmq7-17">
          <mxGeometry width="50" height="50" relative="1" as="geometry">
            <mxPoint x="270" y="670" as="sourcePoint" />
            <mxPoint x="320" y="620" as="targetPoint" />
          </mxGeometry>
        </mxCell>
        <mxCell id="1T61cYQyN9dJzYw8Mmq7-60" value="" style="endArrow=classic;startArrow=classic;html=1;rounded=0;" edge="1" parent="1" source="1T61cYQyN9dJzYw8Mmq7-33" target="1T61cYQyN9dJzYw8Mmq7-39">
          <mxGeometry width="50" height="50" relative="1" as="geometry">
            <mxPoint x="280" y="680" as="sourcePoint" />
            <mxPoint x="330" y="630" as="targetPoint" />
          </mxGeometry>
        </mxCell>
        <mxCell id="1T61cYQyN9dJzYw8Mmq7-61" value="" style="endArrow=classic;startArrow=classic;html=1;rounded=0;" edge="1" parent="1" source="1T61cYQyN9dJzYw8Mmq7-16" target="1T61cYQyN9dJzYw8Mmq7-33">
          <mxGeometry width="50" height="50" relative="1" as="geometry">
            <mxPoint x="290" y="690" as="sourcePoint" />
            <mxPoint x="340" y="640" as="targetPoint" />
          </mxGeometry>
        </mxCell>
        <mxCell id="1T61cYQyN9dJzYw8Mmq7-62" value="" style="endArrow=classic;startArrow=classic;html=1;rounded=0;" edge="1" parent="1" source="1T61cYQyN9dJzYw8Mmq7-16" target="1T61cYQyN9dJzYw8Mmq7-17">
          <mxGeometry width="50" height="50" relative="1" as="geometry">
            <mxPoint x="300" y="700" as="sourcePoint" />
            <mxPoint x="350" y="650" as="targetPoint" />
          </mxGeometry>
        </mxCell>
        <mxCell id="1T61cYQyN9dJzYw8Mmq7-63" value="" style="endArrow=classic;startArrow=classic;html=1;rounded=0;" edge="1" parent="1" source="1T61cYQyN9dJzYw8Mmq7-14" target="1T61cYQyN9dJzYw8Mmq7-16">
          <mxGeometry width="50" height="50" relative="1" as="geometry">
            <mxPoint x="310" y="710" as="sourcePoint" />
            <mxPoint x="360" y="660" as="targetPoint" />
          </mxGeometry>
        </mxCell>
        <mxCell id="1T61cYQyN9dJzYw8Mmq7-64" value="" style="endArrow=classic;startArrow=classic;html=1;rounded=0;" edge="1" parent="1" source="1T61cYQyN9dJzYw8Mmq7-48" target="1T61cYQyN9dJzYw8Mmq7-47">
          <mxGeometry width="50" height="50" relative="1" as="geometry">
            <mxPoint x="720" y="960" as="sourcePoint" />
            <mxPoint x="770" y="910" as="targetPoint" />
          </mxGeometry>
        </mxCell>
      </root>
    </mxGraphModel>
  </diagram>
</mxfile>
